<svg width="51" height="51" viewBox="0 0 51 51" fill="none" xmlns="http://www.w3.org/2000/svg">
<g id="np_stakeholder_6518071_000000 1">
<path id="Vector" d="M35.9515 32.039L34.7405 30.289C35.1859 29.5136 35.5257 28.6894 35.7601 27.8242L37.8499 27.4433C38.1156 27.3925 38.305 27.164 38.305 26.8925V23.2167C38.305 22.9472 38.1097 22.7167 37.8499 22.6659L35.7601 22.2851C35.5257 21.4257 35.1859 20.5995 34.7405 19.8202L35.9515 18.0702C36.1058 17.8495 36.0765 17.5507 35.887 17.3593L33.2874 14.7597C33.098 14.5702 32.7972 14.5448 32.5765 14.6952L30.8265 15.9062C30.0511 15.4608 29.2269 15.1171 28.3616 14.8866L27.9808 12.7968C27.93 12.5311 27.7015 12.3417 27.43 12.3417H23.7542C23.4846 12.3417 23.2542 12.537 23.2034 12.7968L22.8225 14.8866C21.9631 15.121 21.137 15.4608 20.3577 15.9062L18.6077 14.6952C18.387 14.5409 18.0881 14.5702 17.8967 14.7597L15.2971 17.3593C15.1077 17.5487 15.0823 17.8495 15.2327 18.0702L16.4436 19.8202C15.9983 20.5956 15.6585 21.4198 15.4241 22.2851L13.3342 22.6659C13.0686 22.7167 12.8791 22.9452 12.8791 23.2167V26.8925C12.8791 27.162 13.0744 27.3925 13.3342 27.4433L15.4241 27.8242C15.6584 28.6836 15.9983 29.5097 16.4436 30.289L15.2327 32.039C15.0784 32.2597 15.1077 32.5586 15.2971 32.75L17.8967 35.3496C18.0862 35.539 18.387 35.5644 18.6077 35.414L20.3577 34.2031C21.1331 34.6484 21.9573 34.9882 22.8225 35.2226L23.2034 37.3125C23.2542 37.5781 23.4827 37.7676 23.7542 37.7676H27.43C27.6995 37.7676 27.93 37.5723 27.9808 37.3125L28.3616 35.2226C29.221 34.9883 30.0472 34.6484 30.8265 34.2031L32.5765 35.414C32.7972 35.5683 33.096 35.539 33.2874 35.3496L35.887 32.75C36.0824 32.5644 36.1077 32.2637 35.9515 32.039ZM32.8323 34.2343L31.1722 33.0839C30.9925 32.9589 30.7523 32.9492 30.5628 33.0683C29.6936 33.6074 28.7522 33.998 27.7581 34.2285C27.5432 34.2792 27.3772 34.4531 27.3382 34.6738L26.9788 36.6582H24.2346L23.8753 34.6738C23.8362 34.4531 23.6702 34.2831 23.4554 34.2285C22.4651 33.998 21.5198 33.6035 20.6507 33.0683C20.4612 32.9531 20.221 32.9589 20.0413 33.0839L18.3811 34.2343L16.4358 32.289L17.5862 30.6289C17.7112 30.4492 17.7171 30.209 17.6018 30.0195C17.0628 29.1503 16.6721 28.2089 16.4417 27.2187C16.3909 27.0038 16.2171 26.8378 15.9964 26.7988L14.012 26.4394V23.6952L15.9964 23.3359C16.2171 23.2968 16.387 23.1308 16.4417 22.9159C16.6721 21.9257 17.0667 20.9804 17.6018 20.1112C17.7171 19.9218 17.7112 19.6815 17.5862 19.5018L16.4358 17.8417L18.3811 15.8964L20.0413 17.0468C20.2209 17.1718 20.4612 17.1776 20.6507 17.0624C21.5198 16.5234 22.4612 16.1327 23.4554 15.9023C23.6702 15.8515 23.8362 15.6777 23.8753 15.457L24.2346 13.4726H26.9788L27.3382 15.457C27.3772 15.6777 27.5433 15.8476 27.7581 15.9023C28.7483 16.1327 29.6936 16.5273 30.5628 17.0624C30.7522 17.1776 30.9925 17.1718 31.1722 17.0468L32.8323 15.8964L34.7776 17.8417L33.6272 19.5018C33.5022 19.6815 33.4964 19.9218 33.6116 20.1112C34.1507 20.9804 34.5413 21.9218 34.7718 22.912C34.8225 23.1269 34.9964 23.2929 35.2171 23.332L37.2015 23.6913V26.4355L35.2171 26.7949C34.9964 26.8339 34.8265 26.9999 34.7718 27.2148C34.5413 28.205 34.1468 29.1503 33.6116 30.0195C33.4964 30.2089 33.5022 30.4492 33.6272 30.6289L34.7776 32.289L32.8323 34.2343ZM25.6018 17.7148C21.5471 17.7148 18.2523 21.0097 18.2523 25.0643C18.2523 29.1189 21.5472 32.4138 25.6018 32.4138C29.6564 32.4138 32.9513 29.1189 32.9513 25.0643C32.9513 21.0097 29.6564 17.7148 25.6018 17.7148ZM21.2913 29.5588C22.1214 27.9397 23.7717 26.9045 25.6018 26.9045C27.4378 26.9045 29.0823 27.9397 29.9124 29.5588C28.7932 30.633 27.2718 31.2991 25.6018 31.2991C23.9319 31.2991 22.4124 30.635 21.2913 29.5588ZM30.6973 28.6506C29.6231 26.885 27.707 25.7912 25.6018 25.7912C23.5022 25.7912 21.5862 26.8908 20.5063 28.6506C19.7856 27.635 19.3617 26.4006 19.3617 25.0647C19.3617 21.6252 22.1566 18.8302 25.5962 18.8302C29.0376 18.8302 31.8362 21.6251 31.8362 25.0647C31.8362 26.4006 31.4121 27.635 30.6973 28.6506ZM25.6018 19.5041C23.8967 19.5041 22.5119 20.8889 22.5119 22.594C22.5119 24.2991 23.8967 25.6838 25.6018 25.6838C27.3069 25.6838 28.6916 24.2991 28.6916 22.594C28.6916 20.8948 27.3069 19.5041 25.6018 19.5041ZM25.6018 24.5746C24.5119 24.5746 23.6213 23.684 23.6213 22.5942C23.6213 21.5043 24.5119 20.6137 25.6018 20.6137C26.6916 20.6137 27.5822 21.5043 27.5822 22.5942C27.5822 23.684 26.6916 24.5746 25.6018 24.5746ZM10.1213 16.9341C14.176 16.9341 17.4708 13.6392 17.4708 9.58463C17.4708 5.52993 14.1759 2.23513 10.1213 2.23513C6.06659 2.23513 2.77179 5.53003 2.77179 9.58463C2.77179 13.6354 6.06669 16.9341 10.1213 16.9341ZM5.81269 14.0806C6.64279 12.4615 8.29314 11.4263 10.1232 11.4263C11.9592 11.4263 13.6037 12.4615 14.4338 14.0806C13.3146 15.1548 11.7932 15.8209 10.1232 15.8209C8.44744 15.8209 6.93184 15.1549 5.81269 14.0806ZM10.1213 3.35013C13.5607 3.35013 16.3558 6.14503 16.3558 9.58463C16.3558 10.9206 15.93 12.1549 15.2112 13.1706C14.137 11.405 12.221 10.3112 10.1157 10.3112C8.01614 10.3112 6.10014 11.4108 5.02024 13.1706C4.29954 12.155 3.87569 10.9206 3.87569 9.58463C3.88741 6.14518 6.68194 3.35013 10.1213 3.35013ZM10.1213 10.2096C11.8264 10.2096 13.2111 8.82488 13.2111 7.11978C13.2111 5.41468 11.8264 4.02993 10.1213 4.02993C8.41619 4.02993 7.03144 5.41468 7.03144 7.11978C7.02753 8.82093 8.41619 10.2096 10.1213 10.2096ZM10.1213 5.13913C11.2111 5.13913 12.1017 6.02973 12.1017 7.11958C12.1017 8.20943 11.2111 9.10003 10.1213 9.10003C9.03144 9.10003 8.14084 8.20943 8.14084 7.11958C8.14084 6.02583 9.03144 5.13913 10.1213 5.13913ZM41.0823 16.9341C45.137 16.9341 48.4318 13.6392 48.4318 9.58463C48.4318 5.52993 45.1369 2.23513 41.0823 2.23513C37.0276 2.23513 33.7328 5.53003 33.7328 9.58463C33.7328 13.6354 37.0316 16.9341 41.0823 16.9341ZM36.7717 14.0806C37.6018 12.4615 39.2522 11.4263 41.0823 11.4263C42.9182 11.4263 44.5627 12.4615 45.3928 14.0806C44.2737 15.1548 42.7522 15.8209 41.0823 15.8209C39.4124 15.8209 37.8909 15.1549 36.7717 14.0806ZM41.0823 3.35013C44.5217 3.35013 47.3168 6.14503 47.3168 9.58463C47.3168 10.9206 46.891 12.1549 46.1722 13.1706C45.098 11.405 43.182 10.3112 41.0767 10.3112C38.9771 10.3112 37.0611 11.4108 35.9812 13.1706C35.2605 12.155 34.8367 10.9206 34.8367 9.58463C34.8465 6.14518 37.6468 3.35013 41.0823 3.35013ZM41.0823 10.2096C42.7874 10.2096 44.1721 8.82488 44.1721 7.11978C44.1721 5.41468 42.7874 4.02993 41.0823 4.02993C39.3772 4.02993 37.9924 5.41468 37.9924 7.11978C37.9924 8.82093 39.3772 10.2096 41.0823 10.2096ZM41.0823 5.13913C42.1721 5.13913 43.0627 6.02973 43.0627 7.11958C43.0627 8.20943 42.1721 9.10003 41.0823 9.10003C39.9924 9.10003 39.1018 8.20943 39.1018 7.11958C39.1077 6.02583 39.9924 5.13913 41.0823 5.13913ZM10.1213 33.1956C6.06659 33.1956 2.77179 36.4905 2.77179 40.5451C2.77179 44.5998 6.06669 47.8946 10.1213 47.8946C14.176 47.8946 17.4708 44.5997 17.4708 40.5451C17.4708 36.4904 14.1719 33.1956 10.1213 33.1956ZM5.81269 45.0396C6.64279 43.4205 8.29314 42.3853 10.1232 42.3853C11.9592 42.3853 13.6037 43.4205 14.4338 45.0396C13.3146 46.1138 11.7932 46.7799 10.1232 46.7799C8.44744 46.7799 6.93184 46.1158 5.81269 45.0396ZM15.2112 44.1353C14.137 42.3697 12.2209 41.2759 10.1157 41.2759C8.01609 41.2759 6.10009 42.3755 5.02019 44.1353C4.29949 43.1197 3.87564 41.8853 3.87564 40.5494C3.87564 37.1099 6.67054 34.3149 10.1101 34.3149C13.5497 34.3149 16.3446 37.1098 16.3446 40.5494C16.3583 41.8795 15.9325 43.1197 15.2118 44.1353H15.2112ZM10.1212 34.9848C8.41609 34.9848 7.03134 36.3696 7.03134 38.0747C7.03134 39.7798 8.41609 41.1645 10.1212 41.1645C11.8263 41.1645 13.211 39.7798 13.211 38.0747C13.211 36.3696 11.8263 34.9848 10.1212 34.9848ZM10.1212 40.0588C9.03134 40.0588 8.14074 39.1682 8.14074 38.0784C8.14074 36.9885 9.03134 36.0979 10.1212 36.0979C11.211 36.0979 12.1016 36.9885 12.1016 38.0784C12.1016 39.1702 11.211 40.0588 10.1212 40.0588ZM41.0822 33.1953C37.0275 33.1953 33.7327 36.4902 33.7327 40.5448C33.7327 44.5995 37.0276 47.8943 41.0822 47.8943C45.1369 47.8943 48.4317 44.5994 48.4317 40.5448C48.4317 36.4901 45.1368 33.1953 41.0822 33.1953ZM36.7716 45.0393C37.6017 43.4202 39.2521 42.385 41.0822 42.385C42.9181 42.385 44.5626 43.4202 45.3927 45.0393C44.2736 46.1135 42.7521 46.7796 41.0822 46.7796C39.4123 46.7796 37.8908 46.1155 36.7716 45.0393ZM46.1761 44.135C45.1019 42.3694 43.1859 41.2756 41.0806 41.2756C38.981 41.2756 37.065 42.3752 35.9851 44.135C35.2644 43.1194 34.8406 41.885 34.8406 40.5491C34.8406 37.1096 37.6355 34.3146 41.0751 34.3146C44.5145 34.3146 47.3096 37.1095 47.3096 40.5491C47.3174 41.8792 46.8916 43.1194 46.1768 44.135H46.1761ZM41.0821 34.9845C39.377 34.9845 37.9923 36.3693 37.9923 38.0744C37.9923 39.7795 39.377 41.1642 41.0821 41.1642C42.7872 41.1642 44.172 39.7795 44.172 38.0744C44.172 36.3693 42.7872 34.9845 41.0821 34.9845ZM41.0821 40.0585C39.9923 40.0585 39.1017 39.1679 39.1017 38.0781C39.1017 36.9882 39.9923 36.0976 41.0821 36.0976C42.172 36.0976 43.0626 36.9882 43.0626 38.0781C43.0626 39.1699 42.172 40.0585 41.0821 40.0585ZM23.2266 5.16403C23.0118 4.94919 23.0118 4.59373 23.2266 4.37498L25.2071 2.39453C25.3126 2.29492 25.4512 2.23438 25.6016 2.23438C25.752 2.23438 25.8907 2.29492 25.9962 2.39843L27.9766 4.37888C28.1914 4.59373 28.1914 4.94918 27.9766 5.16793C27.7618 5.38278 27.4063 5.38278 27.1876 5.16793L26.1583 4.13863V10.6896C26.1583 11.0002 25.9083 11.2443 25.6036 11.2443C25.2989 11.2443 25.0489 10.9943 25.0489 10.6896L25.0469 4.13513L24.0176 5.16443C23.7969 5.38514 23.4415 5.38474 23.2266 5.16403ZM48.2716 24.67C48.4865 24.8849 48.4865 25.2403 48.2716 25.4552L46.2912 27.4356C46.1818 27.545 46.0412 27.5997 45.8967 27.5997C45.7521 27.5997 45.6115 27.545 45.5021 27.4356C45.2873 27.2208 45.2873 26.8653 45.5021 26.6505L46.5314 25.6212H39.9804C39.6699 25.6212 39.4257 25.3712 39.4257 25.0665C39.4257 24.7618 39.6757 24.5118 39.9804 24.5118H46.5314L45.5021 23.4825C45.2873 23.2676 45.2873 22.9122 45.5021 22.6973C45.717 22.4766 46.0724 22.4766 46.2912 22.6973L48.2716 24.67ZM27.9766 44.965C28.1915 45.1799 28.1915 45.5353 27.9766 45.7502L25.9962 47.7306C25.8868 47.84 25.7462 47.8947 25.6017 47.8947C25.4571 47.8947 25.3165 47.84 25.2071 47.7306L23.2267 45.7502C23.0118 45.5353 23.0118 45.1799 23.2267 44.965C23.4415 44.7443 23.797 44.7443 24.0157 44.965L25.045 45.9943V39.4433C25.045 39.1328 25.295 38.8886 25.5997 38.8886C25.9044 38.8886 26.1544 39.1386 26.1544 39.4433V45.9943L27.1837 44.965C27.4064 44.7443 27.7618 44.7443 27.9766 44.965ZM2.93164 25.459C2.83203 25.3536 2.77148 25.2149 2.77148 25.0645C2.77148 24.9141 2.83203 24.7754 2.93554 24.67L4.91599 22.6895C5.13084 22.4688 5.48629 22.4747 5.70504 22.6895C5.91989 22.9044 5.91989 23.2598 5.70504 23.4747L4.67574 24.504H11.2267C11.5373 24.504 11.7814 24.754 11.7814 25.0587C11.7814 25.3634 11.5314 25.6134 11.2267 25.6134L4.67224 25.6153L5.70154 26.6446C5.91639 26.8595 5.91639 27.2149 5.70154 27.4298C5.59217 27.5391 5.45154 27.5938 5.30701 27.5938C5.16248 27.5938 5.02186 27.5391 4.91248 27.4298L2.93164 25.459Z" fill="#B5251A"/>
</g>
</svg>
